<svg width="56" height="60" viewBox="0 0 56 60" fill="none" xmlns="http://www.w3.org/2000/svg">
<path opacity="0.9" d="M27.5912 10.7761C43.3375 15.7086 50.0428 35.1696 41.4203 48.1056C38.4842 52.5105 36.3319 57.5806 31.085 56.877C27.776 56.4333 25.4119 53.668 24.1307 51.9047C20.4338 46.8162 23.6304 36.1694 25.0066 30.6244C26.9687 22.7192 27.2059 16.9918 22.0216 10.3671C21.8273 10.1188 21.5817 9.91576 21.2951 9.75232C19.2723 9.75942 17.2688 10.0854 14.8927 10.5713C14.1904 10.7149 11.0889 11.6728 10.608 11.0109C10.4484 10.7912 18.2244 8.00112 21.2951 9.75232C23.2564 9.74543 25.236 10.0384 27.5912 10.7761Z" fill="#340000"/>
</svg>
